<svg xmlns="http://www.w3.org/2000/svg" width="28.12" height="38" viewBox="0 0 28.12 38">
  <g id="Group_31" data-name="Group 31" transform="translate(-3315.116 -653)">
    <path id="Subtraction_1" data-name="Subtraction 1" d="M14.06,25.334A14.06,14.06,0,0,1,0,11.274,13.909,13.909,0,0,1,1.541,4.868,14.189,14.189,0,0,1,5.657,0l8.4,14.085L22.463,0a14.188,14.188,0,0,1,4.116,4.868A14.07,14.07,0,0,1,24,21.216,13.969,13.969,0,0,1,14.06,25.334Z" transform="translate(3315.116 665.666)" fill="#189a46"/>
    <path id="Union_2" data-name="Union 2" d="M0,9.335H6V0h4V9.335h6L8,22Z" transform="translate(3321 653)" fill="#189a46"/>
  </g>
</svg>
