<svg xmlns="http://www.w3.org/2000/svg" width="151.519" height="30.037">
  <g data-name="Group 1" fill="#05274e">
    <path data-name="Path 1" d="M16.084 1.997a10.04 10.04 0 0 1 3.847 3.833 11.54 11.54 0 0 1-.015 11.068 10.144 10.144 0 0 1-3.862 3.832 11.2 11.2 0 0 1-10.757 0 10.114 10.114 0 0 1-3.877-3.832 11.494 11.494 0 0 1 0-11.068 10.116 10.116 0 0 1 3.877-3.833 11.258 11.258 0 0 1 10.787 0zM7.191 7.443a6.606 6.606 0 0 0 0 7.8 4.893 4.893 0 0 0 6.955 0 5.671 5.671 0 0 0 1.272-3.877 5.739 5.739 0 0 0-1.258-3.92 4.381 4.381 0 0 0-3.477-1.436 4.426 4.426 0 0 0-3.492 1.433z"/>
    <path data-name="Path 2" d="M33.129 5.844a4.649 4.649 0 0 1 1.909 2.087V5.297h5.8V21.72a9.682 9.682 0 0 1-.887 4.188 6.9 6.9 0 0 1-2.753 3 8.986 8.986 0 0 1-4.705 1.124 9.709 9.709 0 0 1-6.17-1.8 7.113 7.113 0 0 1-2.678-4.942h5.711a2.055 2.055 0 0 0 .888 1.273 3.32 3.32 0 0 0 1.835.444q2.958 0 2.959-3.286v-2.456a4.654 4.654 0 0 1-1.909 2.087 5.889 5.889 0 0 1-3.033.754 6.51 6.51 0 0 1-3.581-1.021A6.91 6.91 0 0 1 24 18.126a11.663 11.663 0 0 1 0-9.071 6.919 6.919 0 0 1 2.515-2.944 6.51 6.51 0 0 1 3.581-1.021 5.889 5.889 0 0 1 3.033.754zm-3.314 5.239a3.52 3.52 0 0 0-.844 2.5 3.562 3.562 0 0 0 .844 2.53 2.873 2.873 0 0 0 2.2.9 2.832 2.832 0 0 0 2.16-.917 3.538 3.538 0 0 0 .858-2.516 3.5 3.5 0 0 0-.858-2.486 2.835 2.835 0 0 0-2.16-.917 2.877 2.877 0 0 0-2.2.906z"/>
    <path data-name="Path 3" d="M59.63 7.058a7.745 7.745 0 0 1 1.628 5.194v9.647h-5.771v-8.908a3.209 3.209 0 0 0-.754-2.264 2.636 2.636 0 0 0-2.028-.813 2.666 2.666 0 0 0-2.071.843 3.314 3.314 0 0 0-.77 2.323v8.819h-5.83v-21.9h5.83v8.079a5.369 5.369 0 0 1 2.072-2.131 6.192 6.192 0 0 1 3.2-.8 5.6 5.6 0 0 1 4.494 1.911z"/>
    <path data-name="Path 4" d="M80.169 14.649h-10.98q.148 2.811 2.457 2.811a2.333 2.333 0 0 0 1.42-.414 2.077 2.077 0 0 0 .77-1.1h6.155a7.048 7.048 0 0 1-1.45 3.152 7.779 7.779 0 0 1-2.841 2.2 8.793 8.793 0 0 1-3.759.8 9.175 9.175 0 0 1-4.4-1.021 7.234 7.234 0 0 1-2.974-2.959 10.19 10.19 0 0 1 0-9.071 7.225 7.225 0 0 1 2.99-2.944 9.969 9.969 0 0 1 8.759-.015 7.186 7.186 0 0 1 2.945 2.87 8.661 8.661 0 0 1 1.05 4.321 7.039 7.039 0 0 1-.142 1.37zm-6.452-4.35a2.526 2.526 0 0 0-1.776-.652 2.7 2.7 0 0 0-1.879.652 2.817 2.817 0 0 0-.843 1.923h5.179a2.4 2.4 0 0 0-.681-1.923z"/>
    <path data-name="Path 5" d="M98.25 7.058a7.745 7.745 0 0 1 1.628 5.194v9.647h-5.771v-8.908a3.2 3.2 0 0 0-.754-2.264 2.636 2.636 0 0 0-2.028-.813 2.666 2.666 0 0 0-2.071.843 3.314 3.314 0 0 0-.77 2.323v8.819h-5.83v-16.6h5.83v2.782a5.375 5.375 0 0 1 2.072-2.131 6.192 6.192 0 0 1 3.2-.8 5.594 5.594 0 0 1 4.494 1.908z"/>
    <path data-name="Path 6" d="M102.275 14.649h10.979q-.147 2.811-2.456 2.811a2.331 2.331 0 0 1-1.42-.414 2.077 2.077 0 0 1-.77-1.1h-6.155a7.037 7.037 0 0 0 1.45 3.152 7.779 7.779 0 0 0 2.841 2.2 8.789 8.789 0 0 0 3.758.8 9.171 9.171 0 0 0 4.4-1.021 7.222 7.222 0 0 0 2.974-2.959 10.182 10.182 0 0 0 0-9.071 7.216 7.216 0 0 0-2.989-2.944 9.971 9.971 0 0 0-8.76-.015 7.189 7.189 0 0 0-2.944 2.87 8.661 8.661 0 0 0-1.051 4.321 7.049 7.049 0 0 0 .143 1.37zm6.452-4.35a2.522 2.522 0 0 1 1.775-.652 2.7 2.7 0 0 1 1.879.652 2.822 2.822 0 0 1 .844 1.923h-5.179a2.4 2.4 0 0 1 .681-1.923z"/>
    <path data-name="Path 7" d="M129.562 6.037a6 6 0 0 1 3.137-.888v6.214h-1.687a4.747 4.747 0 0 0-2.929.755 3.116 3.116 0 0 0-.977 2.619v7.162h-5.83v-16.6h5.83v3.107a7.6 7.6 0 0 1 2.456-2.369z"/>
    <path data-name="Path 8" d="M143.795 5.844a4.678 4.678 0 0 1 1.894 2.087V0h5.83v21.9h-5.83v-2.634a4.683 4.683 0 0 1-1.894 2.087 5.814 5.814 0 0 1-3.019.754 6.51 6.51 0 0 1-3.581-1.021 6.91 6.91 0 0 1-2.515-2.959 11.663 11.663 0 0 1 0-9.071 6.92 6.92 0 0 1 2.515-2.944 6.51 6.51 0 0 1 3.581-1.021 5.814 5.814 0 0 1 3.019.753zm-3.3 5.239a3.52 3.52 0 0 0-.844 2.5 3.562 3.562 0 0 0 .844 2.53 2.873 2.873 0 0 0 2.2.9 2.832 2.832 0 0 0 2.16-.917 3.538 3.538 0 0 0 .858-2.516 3.5 3.5 0 0 0-.858-2.486 2.835 2.835 0 0 0-2.16-.917 2.877 2.877 0 0 0-2.2.906z"/>
  </g>
</svg>
