<svg xmlns="http://www.w3.org/2000/svg" style="display: none;">
  <symbol id="git" viewBox="0 0 34 14">
    <title>Git</title>
    <path d="M20.298 4.824c-.726 0-1.266.356-1.266 1.213 0 .647.356 1.095 1.227 1.095.738 0 1.239-.435 1.239-1.12 0-.779-.448-1.188-1.2-1.188zm-1.45 6.054c-.172.21-.343.434-.343.699 0 .527.672.686 1.595.686.765 0 1.807-.054 1.807-.766 0-.422-.501-.448-1.135-.488l-1.925-.131zm3.903-6.014c.237.303.488.725.488 1.332 0 1.464-1.147 2.32-2.809 2.32-.422 0-.805-.052-1.042-.118l-.435.7 1.292.078c2.282.146 3.626.211 3.626 1.965 0 1.516-1.331 2.374-3.626 2.374-2.387 0-3.297-.607-3.297-1.649 0-.593.264-.91.726-1.345-.436-.184-.58-.513-.58-.87 0-.29.144-.554.382-.805.263-.273.536-.537.817-.79-.646-.317-1.134-1.003-1.134-1.98 0-1.516 1.003-2.557 3.02-2.557.567 0 .91.052 1.213.132h2.572v1.12l-1.213.093zm3.534-2.397c-.752 0-1.188-.435-1.188-1.187 0-.751.436-1.16 1.188-1.16.764 0 1.2.409 1.2 1.16 0 .752-.436 1.187-1.2 1.187zm-1.702 7.926V9.35l.673-.092c.184-.026.21-.066.21-.264V5.118c0-.145-.039-.238-.171-.277l-.712-.25.145-1.069h2.73v5.473c0 .211.013.238.211.264l.673.092v1.042h-3.759zm8.974-.512c-.567.277-1.398.528-2.15.528-1.57 0-2.163-.633-2.163-2.124V4.83c0-.079 0-.132-.106-.132h-.922V3.525c1.16-.132 1.622-.713 1.766-2.15h1.253v1.873c0 .092 0 .132.106.132h1.86v1.318h-1.965V7.85c0 .778.184 1.082.896 1.082.37 0 .752-.093 1.069-.211l.356 1.16zm-19.54-3.46a.89.89 0 010 1.258l-6.002 6.002a.89.89 0 01-1.258 0L.727 7.65a.89.89 0 010-1.258l4.135-4.135 1.565 1.567a1.058 1.058 0 00.575 1.388v3.79a1.058 1.058 0 10.87.032V5.278L9.3 6.706a1.058 1.058 0 10.633-.597l-1.53-1.531a1.056 1.056 0 00-1.338-1.346L5.477 1.643 6.729.391a.89.89 0 011.258 0l6.03 6.03z" fill="#FFF" fill-rule="nonzero"/>
  </symbol>
  <symbol id="sass" viewBox="0 0 19 14">
    <title>SASS</title>
    <path d="M16.36 8.048c-.596 0-1.185.135-1.721.392-.177-.344-.354-.651-.385-.876-.035-.263-.077-.423-.035-.737.041-.313.229-.76.226-.794-.004-.034-.042-.195-.424-.198-.382-.004-.712.072-.75.17a4.066 4.066 0 00-.16.556c-.066.341-.763 1.559-1.162 2.196-.128-.249-.24-.467-.263-.64-.035-.263-.077-.424-.035-.737.041-.314.229-.76.226-.795-.004-.034-.042-.194-.424-.198-.382-.003-.712.072-.75.171-.038.099-.08.33-.16.555-.079.226-1.006 2.258-1.248 2.783-.126.27-.233.485-.31.631 0 0-.003.01-.014.027a9.396 9.396 0 01-.103.195v.003c-.053.092-.108.177-.136.177-.02 0-.059-.245.007-.58.139-.705.469-1.803.465-1.84 0-.021.062-.212-.215-.311-.27-.099-.368.065-.392.065-.024 0-.042.058-.042.058s.302-1.235-.576-1.235c-.548 0-1.305.59-1.68 1.122l-1.277.686c-.204.112-.416.225-.614.33-.014-.013-.028-.03-.041-.044-1.062-1.115-3.027-1.903-2.943-3.4.03-.545.222-1.977 3.772-3.716 2.922-1.415 5.247-1.023 5.65-.153.576 1.24-1.246 3.546-4.266 3.88-1.151.126-1.756-.31-1.908-.474-.16-.17-.184-.18-.243-.147-.097.052-.035.205 0 .293.09.232.461.641 1.09.843.555.177 1.905.276 3.54-.345 1.828-.695 3.258-2.629 2.838-4.248C11.477.069 8.701-.473 6.074.444 4.512.99 2.819 1.85 1.6 2.968.153 4.298-.076 5.453.018 5.938c.338 1.718 2.749 2.837 3.714 3.665a7.78 7.78 0 01-.132.071c-.483.236-2.322 1.18-2.78 2.18-.52 1.131.084 1.943.483 2.052 1.238.338 2.512-.27 3.196-1.272.684-1.002.6-2.305.285-2.902-.004-.006-.008-.013-.015-.02l.379-.218c.23-.134.462-.262.697-.386-.118.318-.204.696-.246 1.242-.052.64.215 1.473.565 1.8.157.143.34.147.459.147.409 0 .593-.334.798-.73.25-.484.475-1.047.475-1.047s-.28 1.52.483 1.52c.277 0 .559-.354.683-.534v.003l.021-.034.045-.072v-.007c.111-.19.361-.623.732-1.343.48-.927.94-2.087.94-2.087s.043.283.185.754c.083.276.257.58.396.872-.111.154-.18.24-.18.24l.003.003c-.09.116-.188.242-.295.364-.378.444-.83.952-.892 1.099-.073.174-.056.3.083.402.1.075.28.085.465.075.34-.024.58-.106.697-.157.215-.074.417-.179.6-.31.372-.27.598-.655.577-1.163-.01-.28-.104-.56-.219-.821.035-.049.066-.096.101-.144.587-.842 1.041-1.766 1.041-1.766s.042.283.184.754c.07.238.212.497.337.75-.552.44-.892.951-1.014 1.285-.218.62-.048.9.274.965.146.03.355-.038.507-.102.23-.075.447-.184.642-.324.372-.27.729-.644.708-1.153a2.127 2.127 0 00-.16-.681c.469-.192 1.073-.298 1.843-.209 1.652.191 1.978 1.204 1.916 1.63-.063.426-.41.658-.524.73-.114.071-.153.095-.143.147.014.074.07.071.167.057.135-.023.868-.344.899-1.128.052-1.003-.92-2.097-2.637-2.087zM3.617 12.27c-.548.586-1.312.807-1.642.62-.354-.201-.215-1.067.459-1.688.409-.378.937-.73 1.287-.944.08-.048.198-.116.34-.202l.038-.02.083-.051c.247.886.01 1.667-.565 2.285zm3.99-2.667c-.19.457-.59 1.626-.832 1.562-.208-.055-.337-.942-.042-1.818.15-.44.465-.965.65-1.17.298-.327.627-.436.707-.303.1.174-.364 1.442-.482 1.73zm3.294 1.548c-.08.041-.156.068-.19.048-.025-.014.034-.069.034-.069s.413-.436.576-.634c.094-.115.205-.252.323-.406v.045c0 .521-.514.873-.743 1.016zm2.54-.57c-.058-.04-.048-.177.15-.603.076-.167.256-.447.565-.716.035.11.06.215.056.314-.003.658-.483.903-.77 1.006z" fill="#FFF" fill-rule="nonzero"/>  
  </symbol>
  <symbol id="js" viewBox="0 0 14 14">
    <title>JavaScript</title>
    <path d="M0 0h14v14H0V0zm12.853 10.661c-.102-.639-.518-1.175-1.752-1.676-.429-.201-.906-.341-1.048-.665-.053-.192-.061-.297-.027-.411.088-.377.534-.49.884-.385.228.07.438.245.57.525.603-.394.603-.394 1.023-.656-.157-.245-.236-.351-.342-.455-.367-.412-.857-.622-1.653-.604l-.411.052c-.394.097-.77.307-.998.587-.665.753-.473 2.065.332 2.608.797.595 1.96.725 2.11 1.286.14.682-.508.901-1.147.822-.473-.105-.735-.341-1.024-.779l-1.067.613c.122.28.262.402.472.647 1.015 1.024 3.553.972 4.008-.586.017-.052.14-.41.043-.962l.027.039zm-5.24-4.226H6.302c0 1.13-.005 2.254-.005 3.386 0 .719.036 1.378-.081 1.581-.192.402-.688.351-.913.28-.231-.114-.349-.271-.485-.498-.036-.062-.064-.115-.074-.115l-1.064.657c.178.367.437.683.772.884.499.298 1.169.394 1.87.237.457-.132.851-.403 1.057-.823.298-.543.235-1.208.232-1.952.007-1.198 0-2.397 0-3.605l.002-.032z" fill="#FFF" fill-rule="nonzero"/>
  </symbol>
  <symbol id="redux" viewBox="0 0 15 14">
    <title>Redux</title>
    <path d="M10.178 9.739a1.05 1.05 0 00-.112-2.094h-.038a1.046 1.046 0 00-1.01 1.084c.02.28.132.524.3.692-.636 1.252-1.608 2.168-3.066 2.935-.99.523-2.018.71-3.046.58-.842-.113-1.496-.487-1.907-1.104-.598-.916-.654-1.906-.15-2.897A4.4 4.4 0 012.421 7.44a10.085 10.085 0 01-.243-.954C-.532 8.45-.252 11.103.57 12.356c.617.934 1.87 1.514 3.252 1.514.374 0 .748-.038 1.122-.131 2.392-.467 4.206-1.888 5.234-4zm3.29-2.318C12.046 5.757 9.952 4.84 7.56 4.84h-.3a1.027 1.027 0 00-.915-.56h-.038A1.046 1.046 0 005.3 5.365a1.05 1.05 0 001.047 1.01h.037c.411-.02.767-.281.916-.636h.337c1.42 0 2.766.41 3.98 1.215.935.616 1.608 1.42 1.982 2.392.318.785.3 1.552-.037 2.206-.524.99-1.402 1.533-2.561 1.533a4.78 4.78 0 01-1.832-.393c-.205.187-.58.486-.84.673.803.374 1.625.58 2.41.58 1.795 0 3.122-.991 3.627-1.982.542-1.084.504-2.953-.898-4.542zm-9.496 2.636a1.05 1.05 0 001.047 1.009h.037a1.046 1.046 0 001.01-1.084 1.05 1.05 0 00-1.047-1.01H4.98c-.037 0-.093 0-.13.02-.767-1.272-1.085-2.655-.973-4.15.075-1.122.45-2.094 1.103-2.898.542-.692 1.59-1.028 2.3-1.047 1.98-.037 2.822 2.43 2.878 3.421.243.056.654.187.934.28C10.87 1.57 9 0 7.206 0c-1.683 0-3.234 1.215-3.85 3.01-.86 2.392-.3 4.691.747 6.504a.84.84 0 00-.131.543z" fill="#FFF" fill-rule="nonzero"/>
  </symbol>
  <symbol id="ts" viewBox="0 0 14 14">
    <title>TypeScript</title>
    <path d="M0 7v7h14V0H0v7zm3.126.012l.007-.572 2.44-.007c1.34-.002 2.445.002 2.452.011.009.007.016.267.016.579v.563H6.224v5.184H4.939V7.586H3.122l.004-.574zm8.127-.522c.357.088.63.245.88.501.129.137.32.387.336.447.005.018-.607.424-.977.652-.014.009-.067-.049-.127-.137-.181-.261-.37-.374-.661-.394-.426-.028-.7.193-.699.562 0 .108.016.172.06.26.094.193.269.308.815.542 1.007.429 1.437.712 1.705 1.114.3.448.366 1.164.163 1.697-.223.58-.776.973-1.555 1.103a4.352 4.352 0 01-1.071-.011c-.565-.1-1.1-.376-1.431-.738-.13-.142-.382-.51-.366-.537.007-.01.065-.045.13-.082l.522-.298.404-.232.084.123c.119.18.378.425.534.506.448.235 1.064.201 1.368-.068a.51.51 0 00.183-.418.507.507 0 00-.105-.353c-.11-.155-.333-.286-.966-.557-.726-.31-1.038-.502-1.324-.807a1.83 1.83 0 01-.386-.696 2.761 2.761 0 01-.024-.889c.15-.694.678-1.178 1.441-1.321a3.596 3.596 0 011.067.03z" fill="#FFF" fill-rule="nonzero"/>
  </symbol>
  <symbol id="react" viewBox="0 0 16 14">
    <title>ReactJS</title>
    <path d="M12.924 4.533a10.53 10.53 0 00-.506-.16c.029-.116.055-.231.079-.345.383-1.859.132-3.357-.723-3.85-.82-.473-2.161.02-3.516 1.199-.13.113-.26.233-.391.359a9.57 9.57 0 00-.26-.24C6.186.235 4.763-.297 3.91.198c-.82.474-1.062 1.882-.717 3.644.033.17.072.344.116.52a10.4 10.4 0 00-.582.184C1.063 5.127 0 6.037 0 6.98c0 .974 1.141 1.95 2.874 2.543.137.047.28.091.425.133-.047.191-.088.379-.123.561-.329 1.732-.072 3.107.745 3.578.844.487 2.26-.013 3.64-1.219.109-.095.218-.196.328-.302.142.137.284.266.425.387 1.336 1.15 2.655 1.614 3.471 1.142.843-.488 1.117-1.965.762-3.762a8.905 8.905 0 00-.095-.42c.1-.03.198-.06.293-.092 1.802-.597 2.974-1.562 2.974-2.55 0-.946-1.097-1.862-2.795-2.446zm-.39 4.359a8.861 8.861 0 01-.264.082 15.75 15.75 0 00-.796-1.991c.313-.676.571-1.337.765-1.962.16.046.316.095.467.147 1.454.5 2.342 1.241 2.342 1.812 0 .607-.958 1.396-2.514 1.912zm-.646 1.279c.157.795.18 1.513.076 2.075-.094.504-.282.84-.515.976-.496.286-1.555-.086-2.697-1.07a9.624 9.624 0 01-.396-.36c.443-.484.886-1.048 1.318-1.673.76-.068 1.478-.178 2.129-.328.032.13.06.256.085.38zm-6.529 3.001c-.484.17-.87.176-1.102.041-.496-.286-.702-1.39-.421-2.87.032-.17.07-.344.114-.522.644.142 1.357.245 2.119.306.435.612.89 1.175 1.35 1.668-.101.096-.2.189-.3.275-.61.533-1.221.912-1.76 1.102zM3.092 8.888c-.767-.262-1.4-.602-1.834-.974-.39-.334-.587-.665-.587-.934 0-.573.854-1.303 2.277-1.8a9.69 9.69 0 01.541-.17c.197.64.455 1.31.766 1.986a16.36 16.36 0 00-.775 2.013 8.272 8.272 0 01-.388-.121zm.76-5.174c-.296-1.51-.1-2.648.394-2.934.526-.305 1.689.13 2.915 1.218.078.07.157.142.235.217-.456.49-.908 1.049-1.339 1.657-.739.069-1.447.179-2.097.326a9.846 9.846 0 01-.108-.484zm6.78 1.674a21.356 21.356 0 00-.478-.786c.502.064.982.148 1.434.25-.136.435-.305.89-.504 1.354-.142-.27-.293-.543-.452-.818zM7.867 2.695c.31.336.62.71.925 1.117a19.774 19.774 0 00-1.858 0c.306-.403.619-.777.933-1.117zM5.084 5.393c-.155.27-.303.541-.443.813-.196-.464-.363-.92-.5-1.36.449-.1.927-.183 1.425-.245-.165.258-.326.522-.482.792zm.497 4.013c-.515-.057-1-.135-1.45-.233.14-.448.31-.914.51-1.388a19.846 19.846 0 00.94 1.62v.001zm2.305 1.905a15.073 15.073 0 01-.946-1.132 23.473 23.473 0 001.869-.003c-.307.416-.616.797-.923 1.135zm3.205-3.55c.21.48.387.942.528 1.383-.456.104-.948.188-1.467.25a23.482 23.482 0 00.939-1.633zm-1.038.498c-.245.426-.498.832-.754 1.216a22.01 22.01 0 01-2.863.006 18.876 18.876 0 01-1.439-2.485 18.87 18.87 0 011.43-2.48 18.889 18.889 0 012.865 0c.262.383.515.788.76 1.209.246.426.472.848.677 1.261-.204.421-.43.847-.676 1.273zm1.386-7.5c.526.304.73 1.529.4 3.134a8.872 8.872 0 01-.07.312c-.653-.15-1.361-.262-2.103-.332a15.775 15.775 0 00-1.328-1.658c.12-.116.241-.227.361-.332C9.86.873 10.944.475 11.44.76zm-3.58 4.817a1.404 1.404 0 110 2.807 1.404 1.404 0 010-2.807z" fill="#FFF" fill-rule="nonzero"/>
  </symbol>
  <symbol id="gatsby" viewBox="0 0 14 14">
    <title>Gatsby</title>
    <path d="M7 .004A6.959 6.959 0 00.005 7 6.96 6.96 0 007 13.997a6.96 6.96 0 006.996-6.996A6.958 6.958 0 007.001.004zM1.526 7.061l5.415 5.415a5.427 5.427 0 01-5.415-5.415zm6.692 5.293l-6.57-6.57A5.484 5.484 0 017 1.524a5.528 5.528 0 014.441 2.252l-.79.669A4.467 4.467 0 006.94 2.498 4.407 4.407 0 002.742 5.48L8.46 11.2c1.4-.487 2.494-1.704 2.798-3.164H8.886V7h3.59a5.485 5.485 0 01-4.259 5.353z" fill="#FFF" fill-rule="nonzero"/>
  </symbol>
  <symbol id="resume" viewBox="0 0 16 86">
    <path d="M15.53 78.237l-5.356 2.935v.41h5.357v4.043H1v-6.383c0-1.163.202-2.151.605-2.965.404-.815.962-1.427 1.673-1.837.712-.41 1.512-.616 2.401-.616 1.013 0 1.892.28 2.638.841.745.561 1.269 1.369 1.57 2.422l5.644-3.304v4.454zm-8.065 3.345v-1.99c0-1.123-.506-1.684-1.519-1.684-.479 0-.855.14-1.129.421-.273.28-.41.701-.41 1.262v1.991h3.058zm2.093-20.398c.288 0 .603.035.945.103v7.614c1.3-.068 1.95-.636 1.95-1.703 0-.397-.096-.725-.288-.985a1.438 1.438 0 00-.76-.534V61.41c.808.15 1.536.486 2.186 1.006.65.52 1.16 1.176 1.53 1.97.369.794.554 1.663.554 2.607 0 1.149-.236 2.165-.708 3.047a5.01 5.01 0 01-2.053 2.063c-.896.493-1.946.739-3.15.739s-2.251-.246-3.14-.739A5.01 5.01 0 014.58 70.03c-.472-.89-.708-1.902-.708-3.037 0-1.15.233-2.162.698-3.038a4.978 4.978 0 011.991-2.042c.862-.486 1.86-.729 2.996-.729zM8.82 65.29c-.589-.014-1.033.144-1.334.472-.301.329-.452.739-.452 1.232 0 .533.15.968.452 1.303.3.335.745.53 1.334.585v-3.592zM3.873 55.215c0-1.519.37-2.73 1.109-3.633s1.717-1.47 2.935-1.703v3.776c-.41.096-.719.29-.924.585-.205.294-.308.653-.308 1.078 0 .3.065.53.195.687.13.157.311.236.544.236.287 0 .503-.167.646-.503.144-.335.305-.886.483-1.652.191-.89.397-1.625.616-2.206a3.757 3.757 0 011.067-1.519c.492-.43 1.156-.646 1.99-.646.671 0 1.266.184 1.786.554.52.37.927.906 1.221 1.61.295.705.442 1.537.442 2.494 0 1.615-.35 2.901-1.047 3.859-.698.958-1.697 1.54-2.997 1.745v-3.88c.425-.054.74-.236.944-.543.206-.308.308-.695.308-1.16 0-.315-.068-.554-.205-.718a.662.662 0 00-.534-.247c-.328 0-.567.175-.718.524-.15.349-.3.906-.451 1.672-.178.876-.373 1.594-.585 2.155a3.673 3.673 0 01-1.027 1.468c-.472.417-1.125.626-1.96.626-1.04 0-1.888-.404-2.545-1.211-.656-.807-.985-1.957-.985-3.448zm.144-19.064h11.514v4.023H13.6a3.726 3.726 0 011.478 1.437c.37.63.555 1.368.555 2.216 0 1.327-.442 2.37-1.324 3.13-.883.76-2.09 1.14-3.623 1.14h-6.67v-4.023h6.178c.656 0 1.173-.175 1.55-.524.376-.349.564-.817.564-1.406 0-.602-.192-1.08-.575-1.436-.383-.356-.924-.534-1.621-.534H4.017v-4.023zm-.103-17.36c0-1.45.438-2.582 1.314-3.397.876-.814 2.08-1.22 3.612-1.22h6.69v4.022H9.354c-.615 0-1.094.171-1.436.513-.343.342-.514.8-.514 1.375 0 .602.175 1.078.524 1.427.349.348.845.523 1.488.523h6.116v4.023H9.353c-.615 0-1.094.17-1.436.513-.343.342-.514.8-.514 1.375 0 .602.175 1.077.524 1.426.349.35.845.524 1.488.524h6.116v4.043H4.017v-4.043h1.765a3.61 3.61 0 01-1.365-1.376c-.335-.588-.503-1.279-.503-2.072 0-.862.192-1.622.575-2.279a3.97 3.97 0 011.642-1.539 4.57 4.57 0 01-1.611-1.6 4.254 4.254 0 01-.606-2.238zM9.558 1c.288 0 .603.034.945.103v7.614c1.3-.068 1.95-.636 1.95-1.703 0-.397-.096-.726-.288-.986a1.438 1.438 0 00-.76-.533v-4.27c.808.151 1.536.486 2.186 1.006.65.52 1.16 1.177 1.53 1.97.369.794.554 1.663.554 2.607 0 1.15-.236 2.166-.708 3.048a5.01 5.01 0 01-2.053 2.063c-.896.492-1.946.739-3.15.739s-2.251-.247-3.14-.74A5.01 5.01 0 014.58 9.847c-.472-.89-.708-1.902-.708-3.038 0-1.15.233-2.162.698-3.037a4.978 4.978 0 011.991-2.042C7.424 1.243 8.422 1 9.558 1zM8.82 5.105c-.589-.014-1.033.143-1.334.472-.301.328-.452.739-.452 1.231 0 .534.15.968.452 1.304.3.335.745.53 1.334.584V5.105z"/>
  </symbol>
  <symbol id="projects" viewBox="0 0 725 192">
    <path d="M35.674 102.762V144H1.396V20.808h51.156c14.848 0 26.187 3.741 34.017 11.223 7.83 7.482 11.745 17.487 11.745 30.015 0 7.772-1.74 14.732-5.22 20.88-3.48 6.148-8.671 10.991-15.573 14.529-6.902 3.538-15.225 5.307-24.969 5.307H35.674zm13.05-26.97c9.976 0 14.964-4.582 14.964-13.746 0-9.048-4.988-13.572-14.964-13.572h-13.05v27.318h13.05zm97.066-11.136c3.828-5.8 8.642-10.44 14.442-13.92 5.8-3.48 11.948-5.22 18.444-5.22v36.54h-9.918c-7.656 0-13.398 1.479-17.226 4.437-3.828 2.958-5.742 8.091-5.742 15.399V144h-34.278V46.386h34.278v18.27zm90.106-19.488c9.744 0 18.473 2.001 26.187 6.003 7.714 4.002 13.775 9.802 18.183 17.4 4.408 7.598 6.612 16.443 6.612 26.535 0 10.208-2.204 19.082-6.612 26.622-4.408 7.54-10.469 13.34-18.183 17.4-7.714 4.06-16.443 6.09-26.187 6.09s-18.502-2.03-26.274-6.09c-7.772-4.06-13.862-9.86-18.27-17.4-4.408-7.54-6.612-16.414-6.612-26.622 0-10.208 2.204-19.082 6.612-26.622 4.408-7.54 10.498-13.311 18.27-17.313 7.772-4.002 16.53-6.003 26.274-6.003zm0 29.58c-4.756 0-8.7 1.74-11.832 5.22-3.132 3.48-4.698 8.526-4.698 15.138 0 6.728 1.566 11.832 4.698 15.312 3.132 3.48 7.076 5.22 11.832 5.22 4.64 0 8.526-1.769 11.658-5.307 3.132-3.538 4.698-8.613 4.698-15.225s-1.566-11.658-4.698-15.138c-3.132-3.48-7.018-5.22-11.658-5.22zm81.754-38.28c-6.032 0-10.875-1.624-14.529-4.872-3.654-3.248-5.481-7.308-5.481-12.18 0-5.104 1.827-9.309 5.481-12.615 3.654-3.306 8.497-4.959 14.529-4.959s10.875 1.653 14.529 4.959c3.654 3.306 5.481 7.511 5.481 12.615 0 4.872-1.827 8.932-5.481 12.18-3.654 3.248-8.497 4.872-14.529 4.872zM285.286 161.4h7.308c2.9 0 4.988-.609 6.264-1.827 1.276-1.218 1.914-3.161 1.914-5.829V46.386h34.104v106.836c0 24.94-12.528 37.41-37.584 37.41h-12.006V161.4zM447.08 93.366c0 2.436-.29 5.104-.87 8.004h-64.554c.58 11.02 5.394 16.53 14.442 16.53 3.364 0 6.148-.812 8.352-2.436 2.204-1.624 3.712-3.77 4.524-6.438h36.192c-1.276 6.844-4.118 13.021-8.526 18.531-4.408 5.51-9.976 9.831-16.704 12.963-6.728 3.132-14.094 4.698-22.098 4.698-9.744 0-18.357-2.001-25.839-6.003-7.482-4.002-13.311-9.802-17.487-17.4-4.176-7.598-6.264-16.5-6.264-26.709 0-10.208 2.088-19.082 6.264-26.622 4.176-7.54 10.034-13.311 17.574-17.313 7.54-4.002 16.124-6.003 25.752-6.003 9.744 0 18.328 1.972 25.752 5.916 7.424 3.944 13.195 9.57 17.313 16.878 4.118 7.308 6.177 15.776 6.177 25.404zm-34.8-6.264c.116-4.988-1.218-8.758-4.002-11.31-2.784-2.552-6.264-3.828-10.44-3.828-4.524 0-8.207 1.276-11.049 3.828-2.842 2.552-4.495 6.322-4.959 11.31h30.45zm92.89-41.934c12.644 0 23.258 3.509 31.842 10.527 8.584 7.018 13.978 16.733 16.182 29.145h-36.192c-.812-3.364-2.291-5.945-4.437-7.743-2.146-1.798-4.901-2.697-8.265-2.697-4.176 0-7.569 1.769-10.179 5.307-2.61 3.538-3.915 8.671-3.915 15.399 0 6.844 1.305 12.006 3.915 15.486 2.61 3.48 6.003 5.22 10.179 5.22 3.364 0 6.119-.899 8.265-2.697 2.146-1.798 3.625-4.379 4.437-7.743h36.192c-2.204 12.412-7.598 22.156-16.182 29.232-8.584 7.076-19.198 10.614-31.842 10.614-9.744 0-18.357-2.001-25.839-6.003-7.482-4.002-13.311-9.802-17.487-17.4-4.176-7.598-6.264-16.5-6.264-26.709 0-10.208 2.088-19.082 6.264-26.622 4.176-7.54 10.034-13.311 17.574-17.313 7.54-4.002 16.124-6.003 25.752-6.003zm119.686 69.6V144h-14.094c-11.948 0-21.286-2.958-28.014-8.874-6.728-5.916-10.092-15.718-10.092-29.406V74.922h-12.528V46.386h12.528V22.722h34.278v23.664h17.574v28.536h-17.574v31.494c0 3.016.667 5.162 2.001 6.438 1.334 1.276 3.567 1.914 6.699 1.914h9.222zm52.522-69.6c12.876 0 23.142 3.132 30.798 9.396 7.656 6.264 12.47 14.558 14.442 24.882h-32.016c-.812-3.48-2.465-6.09-4.959-7.83-2.494-1.74-5.539-2.61-9.135-2.61-2.552 0-4.495.551-5.829 1.653-1.334 1.102-2.001 2.639-2.001 4.611 0 2.436 1.421 4.263 4.263 5.481 2.842 1.218 7.511 2.581 14.007 4.089 7.54 1.624 13.775 3.364 18.705 5.22 4.93 1.856 9.222 4.872 12.876 9.048s5.481 9.802 5.481 16.878c0 5.684-1.566 10.73-4.698 15.138-3.132 4.408-7.685 7.859-13.659 10.353-5.974 2.494-13.021 3.741-21.141 3.741-13.688 0-24.592-2.958-32.712-8.874-8.12-5.916-13.05-14.384-14.79-25.404h32.886c.464 3.596 2.001 6.264 4.611 8.004 2.61 1.74 5.887 2.61 9.831 2.61 2.668 0 4.698-.58 6.09-1.74 1.392-1.16 2.088-2.668 2.088-4.524 0-2.784-1.479-4.814-4.437-6.09-2.958-1.276-7.685-2.552-14.181-3.828-7.424-1.508-13.514-3.161-18.27-4.959-4.756-1.798-8.903-4.698-12.441-8.7-3.538-4.002-5.307-9.541-5.307-16.617 0-8.816 3.422-16.008 10.266-21.576 6.844-5.568 16.588-8.352 29.232-8.352z" fill-rule="evenodd"/>
  </symbol>
  <symbol id="contact" viewBox="0 0 375 275">
		<path d="M307.277 274v-39.19L333.122 274h39.864l-37.837-47.297 36.824-47.467h-38.682l-26.014 36.825V149H274v125zM261.277 274V149H228v125zM154.238 274.05c6.844 0 12.789-1.479 17.835-4.437 5.046-2.958 8.787-7.047 11.223-12.267h0v15.486H217.4v-97.614h-34.104v15.486c-2.436-5.22-6.177-9.309-11.223-12.267-5.046-2.958-10.991-4.437-17.835-4.437-7.772 0-14.79 2.001-21.054 6.003-6.264 4.002-11.194 9.773-14.79 17.313-3.596 7.54-5.394 16.414-5.394 26.622 0 10.208 1.798 19.111 5.394 26.709 3.596 7.598 8.526 13.398 14.79 17.4 6.264 4.002 13.282 6.003 21.054 6.003zm11.31-29.928c-5.336 0-9.657-1.769-12.963-5.307-3.306-3.538-4.959-8.497-4.959-14.877 0-6.264 1.653-11.165 4.959-14.703 3.306-3.538 7.627-5.307 12.963-5.307 5.104 0 9.338 1.798 12.702 5.394 3.364 3.596 5.046 8.468 5.046 14.616 0 6.264-1.682 11.194-5.046 14.79-3.364 3.596-7.598 5.394-12.702 5.394zM69.152 274v-97.281h33.721V149H1.18v27.719h33.368V274zM327.428 123c8.278 0 15.462-1.271 21.553-3.814 6.09-2.543 10.732-6.06 13.925-10.555 3.193-4.494 4.79-9.638 4.79-15.433 0-7.214-1.863-12.95-5.588-17.207-3.725-4.257-8.101-7.332-13.127-9.224-5.026-1.892-11.383-3.666-19.07-5.322-6.622-1.537-11.382-2.927-14.28-4.168-2.897-1.242-4.346-3.105-4.346-5.588 0-2.01.68-3.578 2.04-4.701 1.36-1.124 3.341-1.685 5.943-1.685 3.666 0 6.77.887 9.313 2.66 2.542 1.774 4.228 4.435 5.056 7.983h32.64c-2.01-10.525-6.919-18.98-14.724-25.367C343.748 24.193 333.282 21 320.155 21c-12.89 0-22.825 2.838-29.802 8.515-6.977 5.676-10.466 13.008-10.466 21.996 0 7.214 1.803 12.861 5.41 16.941 3.607 4.08 7.835 7.037 12.684 8.87 4.849 1.833 11.057 3.518 18.626 5.055 6.623 1.301 11.442 2.602 14.457 3.903 3.016 1.3 4.524 3.37 4.524 6.209 0 1.892-.71 3.43-2.129 4.612s-3.489 1.774-6.209 1.774c-4.02 0-7.361-.887-10.022-2.661-2.661-1.774-4.228-4.494-4.701-8.16H279c1.774 11.235 6.8 19.868 15.078 25.899 8.279 6.031 19.395 9.047 33.35 9.047zM254.87 40.976c6.38 0 11.223-1.856 14.529-5.568 3.306-3.712 4.959-9.048 4.959-16.008 0-6.148-.812-11.948-2.436-17.4h0H254v16.878h9.396v3.654c0 3.364-.696 5.887-2.088 7.569-1.392 1.682-3.538 2.523-6.438 2.523h0v8.352zM247.728 123.278V94.046h-9.222c-3.132 0-5.365-.638-6.699-1.914-1.334-1.276-2.001-3.422-2.001-6.438h0V54.2h17.574V25.664h-17.574V2h-34.278v23.664H183V54.2h12.528v30.798c0 13.688 3.364 23.49 10.092 29.406 6.728 5.916 16.066 8.874 28.014 8.874h14.094zM126.678 123c8.18 0 15.707-1.597 22.583-4.79 6.875-3.193 12.565-7.598 17.07-13.215 4.505-5.618 7.409-11.915 8.713-18.892h0-36.986c-.83 2.72-2.37 4.907-4.623 6.563-2.252 1.656-5.098 2.484-8.535 2.484-9.247 0-14.166-5.618-14.76-16.853h65.97c.594-2.956.89-5.676.89-8.16 0-9.815-2.104-18.448-6.313-25.899-4.208-7.45-10.105-13.186-17.692-17.207-7.587-4.02-16.36-6.031-26.317-6.031-9.84 0-18.612 2.04-26.317 6.12-7.705 4.08-13.692 9.963-17.96 17.65C78.134 52.457 76 61.504 76 71.911c0 10.407 2.134 19.484 6.401 27.23 4.268 7.746 10.225 13.659 17.871 17.739 7.646 4.08 16.448 6.12 26.406 6.12zm15.315-59H111c.472-4.943 2.155-8.678 5.047-11.207C118.94 50.264 122.69 49 127.293 49c4.25 0 7.793 1.264 10.627 3.793 2.833 2.529 4.191 6.264 4.073 11.207h0zM70.076 118V93.377h-36.52V1H1v117z"/>
  </symbol>
  <symbol id="logo" viewBox="0 0 21 14">
    <title>Logo</title>
		<path d="M8.743 6.771v2.284a1.42 1.42 0 01-1.418 1.418H3.967a1.42 1.42 0 01-1.418-1.418V6.771H.091v2.284a3.88 3.88 0 003.876 3.876h3.358A3.88 3.88 0 0011.2 9.055V6.771H8.743z"/>
		<path d="M19.85 3.98v8.897h-2.458V3.979a1.42 1.42 0 00-1.418-1.418h-3.357A1.42 1.42 0 0011.2 3.914v.004l-.001.061.002 1.72v.423H8.743V3.967l-.001-.055v-.004A1.42 1.42 0 007.325 2.55H3.967a1.42 1.42 0 00-1.418 1.418v2.156H.091V3.967A3.88 3.88 0 013.967.092h3.358C8.31.09 9.26.467 9.977 1.144a3.86 3.86 0 012.64-1.04h3.357a3.88 3.88 0 013.876 3.875z"/>
		<path d="M8.747 3.967v1.732l-.002-1.72.001-.067.001.055z" />
  </symbol>
</svg>

