<svg xmlns="http://www.w3.org/2000/svg" style="display: none;">
  <symbol id="git" viewBox="0 0 34 14">
    <title>Git</title>
    <path d="M20.298 4.824c-.726 0-1.266.356-1.266 1.213 0 .647.356 1.095 1.227 1.095.738 0 1.239-.435 1.239-1.12 0-.779-.448-1.188-1.2-1.188zm-1.45 6.054c-.172.21-.343.434-.343.699 0 .527.672.686 1.595.686.765 0 1.807-.054 1.807-.766 0-.422-.501-.448-1.135-.488l-1.925-.131zm3.903-6.014c.237.303.488.725.488 1.332 0 1.464-1.147 2.32-2.809 2.32-.422 0-.805-.052-1.042-.118l-.435.7 1.292.078c2.282.146 3.626.211 3.626 1.965 0 1.516-1.331 2.374-3.626 2.374-2.387 0-3.297-.607-3.297-1.649 0-.593.264-.91.726-1.345-.436-.184-.58-.513-.58-.87 0-.29.144-.554.382-.805.263-.273.536-.537.817-.79-.646-.317-1.134-1.003-1.134-1.98 0-1.516 1.003-2.557 3.02-2.557.567 0 .91.052 1.213.132h2.572v1.12l-1.213.093zm3.534-2.397c-.752 0-1.188-.435-1.188-1.187 0-.751.436-1.16 1.188-1.16.764 0 1.2.409 1.2 1.16 0 .752-.436 1.187-1.2 1.187zm-1.702 7.926V9.35l.673-.092c.184-.026.21-.066.21-.264V5.118c0-.145-.039-.238-.171-.277l-.712-.25.145-1.069h2.73v5.473c0 .211.013.238.211.264l.673.092v1.042h-3.759zm8.974-.512c-.567.277-1.398.528-2.15.528-1.57 0-2.163-.633-2.163-2.124V4.83c0-.079 0-.132-.106-.132h-.922V3.525c1.16-.132 1.622-.713 1.766-2.15h1.253v1.873c0 .092 0 .132.106.132h1.86v1.318h-1.965V7.85c0 .778.184 1.082.896 1.082.37 0 .752-.093 1.069-.211l.356 1.16zm-19.54-3.46a.89.89 0 010 1.258l-6.002 6.002a.89.89 0 01-1.258 0L.727 7.65a.89.89 0 010-1.258l4.135-4.135 1.565 1.567a1.058 1.058 0 00.575 1.388v3.79a1.058 1.058 0 10.87.032V5.278L9.3 6.706a1.058 1.058 0 10.633-.597l-1.53-1.531a1.056 1.056 0 00-1.338-1.346L5.477 1.643 6.729.391a.89.89 0 011.258 0l6.03 6.03z" fill="#FFF" fill-rule="nonzero"/>
  </symbol>
  <symbol id="sass" viewBox="0 0 19 14">
    <title>SASS</title>
    <path d="M16.36 8.048c-.596 0-1.185.135-1.721.392-.177-.344-.354-.651-.385-.876-.035-.263-.077-.423-.035-.737.041-.313.229-.76.226-.794-.004-.034-.042-.195-.424-.198-.382-.004-.712.072-.75.17a4.066 4.066 0 00-.16.556c-.066.341-.763 1.559-1.162 2.196-.128-.249-.24-.467-.263-.64-.035-.263-.077-.424-.035-.737.041-.314.229-.76.226-.795-.004-.034-.042-.194-.424-.198-.382-.003-.712.072-.75.171-.038.099-.08.33-.16.555-.079.226-1.006 2.258-1.248 2.783-.126.27-.233.485-.31.631 0 0-.003.01-.014.027a9.396 9.396 0 01-.103.195v.003c-.053.092-.108.177-.136.177-.02 0-.059-.245.007-.58.139-.705.469-1.803.465-1.84 0-.021.062-.212-.215-.311-.27-.099-.368.065-.392.065-.024 0-.042.058-.042.058s.302-1.235-.576-1.235c-.548 0-1.305.59-1.68 1.122l-1.277.686c-.204.112-.416.225-.614.33-.014-.013-.028-.03-.041-.044-1.062-1.115-3.027-1.903-2.943-3.4.03-.545.222-1.977 3.772-3.716 2.922-1.415 5.247-1.023 5.65-.153.576 1.24-1.246 3.546-4.266 3.88-1.151.126-1.756-.31-1.908-.474-.16-.17-.184-.18-.243-.147-.097.052-.035.205 0 .293.09.232.461.641 1.09.843.555.177 1.905.276 3.54-.345 1.828-.695 3.258-2.629 2.838-4.248C11.477.069 8.701-.473 6.074.444 4.512.99 2.819 1.85 1.6 2.968.153 4.298-.076 5.453.018 5.938c.338 1.718 2.749 2.837 3.714 3.665a7.78 7.78 0 01-.132.071c-.483.236-2.322 1.18-2.78 2.18-.52 1.131.084 1.943.483 2.052 1.238.338 2.512-.27 3.196-1.272.684-1.002.6-2.305.285-2.902-.004-.006-.008-.013-.015-.02l.379-.218c.23-.134.462-.262.697-.386-.118.318-.204.696-.246 1.242-.052.64.215 1.473.565 1.8.157.143.34.147.459.147.409 0 .593-.334.798-.73.25-.484.475-1.047.475-1.047s-.28 1.52.483 1.52c.277 0 .559-.354.683-.534v.003l.021-.034.045-.072v-.007c.111-.19.361-.623.732-1.343.48-.927.94-2.087.94-2.087s.043.283.185.754c.083.276.257.58.396.872-.111.154-.18.24-.18.24l.003.003c-.09.116-.188.242-.295.364-.378.444-.83.952-.892 1.099-.073.174-.056.3.083.402.1.075.28.085.465.075.34-.024.58-.106.697-.157.215-.074.417-.179.6-.31.372-.27.598-.655.577-1.163-.01-.28-.104-.56-.219-.821.035-.049.066-.096.101-.144.587-.842 1.041-1.766 1.041-1.766s.042.283.184.754c.07.238.212.497.337.75-.552.44-.892.951-1.014 1.285-.218.62-.048.9.274.965.146.03.355-.038.507-.102.23-.075.447-.184.642-.324.372-.27.729-.644.708-1.153a2.127 2.127 0 00-.16-.681c.469-.192 1.073-.298 1.843-.209 1.652.191 1.978 1.204 1.916 1.63-.063.426-.41.658-.524.73-.114.071-.153.095-.143.147.014.074.07.071.167.057.135-.023.868-.344.899-1.128.052-1.003-.92-2.097-2.637-2.087zM3.617 12.27c-.548.586-1.312.807-1.642.62-.354-.201-.215-1.067.459-1.688.409-.378.937-.73 1.287-.944.08-.048.198-.116.34-.202l.038-.02.083-.051c.247.886.01 1.667-.565 2.285zm3.99-2.667c-.19.457-.59 1.626-.832 1.562-.208-.055-.337-.942-.042-1.818.15-.44.465-.965.65-1.17.298-.327.627-.436.707-.303.1.174-.364 1.442-.482 1.73zm3.294 1.548c-.08.041-.156.068-.19.048-.025-.014.034-.069.034-.069s.413-.436.576-.634c.094-.115.205-.252.323-.406v.045c0 .521-.514.873-.743 1.016zm2.54-.57c-.058-.04-.048-.177.15-.603.076-.167.256-.447.565-.716.035.11.06.215.056.314-.003.658-.483.903-.77 1.006z" fill="#FFF" fill-rule="nonzero"/>  
  </symbol>
  <symbol id="js" viewBox="0 0 14 14">
    <title>JavaScript</title>
    <path d="M0 0h14v14H0V0zm12.853 10.661c-.102-.639-.518-1.175-1.752-1.676-.429-.201-.906-.341-1.048-.665-.053-.192-.061-.297-.027-.411.088-.377.534-.49.884-.385.228.07.438.245.57.525.603-.394.603-.394 1.023-.656-.157-.245-.236-.351-.342-.455-.367-.412-.857-.622-1.653-.604l-.411.052c-.394.097-.77.307-.998.587-.665.753-.473 2.065.332 2.608.797.595 1.96.725 2.11 1.286.14.682-.508.901-1.147.822-.473-.105-.735-.341-1.024-.779l-1.067.613c.122.28.262.402.472.647 1.015 1.024 3.553.972 4.008-.586.017-.052.14-.41.043-.962l.027.039zm-5.24-4.226H6.302c0 1.13-.005 2.254-.005 3.386 0 .719.036 1.378-.081 1.581-.192.402-.688.351-.913.28-.231-.114-.349-.271-.485-.498-.036-.062-.064-.115-.074-.115l-1.064.657c.178.367.437.683.772.884.499.298 1.169.394 1.87.237.457-.132.851-.403 1.057-.823.298-.543.235-1.208.232-1.952.007-1.198 0-2.397 0-3.605l.002-.032z" fill="#FFF" fill-rule="nonzero"/>
  </symbol>
  <symbol id="redux" viewBox="0 0 15 14">
    <title>Redux</title>
    <path d="M10.178 9.739a1.05 1.05 0 00-.112-2.094h-.038a1.046 1.046 0 00-1.01 1.084c.02.28.132.524.3.692-.636 1.252-1.608 2.168-3.066 2.935-.99.523-2.018.71-3.046.58-.842-.113-1.496-.487-1.907-1.104-.598-.916-.654-1.906-.15-2.897A4.4 4.4 0 012.421 7.44a10.085 10.085 0 01-.243-.954C-.532 8.45-.252 11.103.57 12.356c.617.934 1.87 1.514 3.252 1.514.374 0 .748-.038 1.122-.131 2.392-.467 4.206-1.888 5.234-4zm3.29-2.318C12.046 5.757 9.952 4.84 7.56 4.84h-.3a1.027 1.027 0 00-.915-.56h-.038A1.046 1.046 0 005.3 5.365a1.05 1.05 0 001.047 1.01h.037c.411-.02.767-.281.916-.636h.337c1.42 0 2.766.41 3.98 1.215.935.616 1.608 1.42 1.982 2.392.318.785.3 1.552-.037 2.206-.524.99-1.402 1.533-2.561 1.533a4.78 4.78 0 01-1.832-.393c-.205.187-.58.486-.84.673.803.374 1.625.58 2.41.58 1.795 0 3.122-.991 3.627-1.982.542-1.084.504-2.953-.898-4.542zm-9.496 2.636a1.05 1.05 0 001.047 1.009h.037a1.046 1.046 0 001.01-1.084 1.05 1.05 0 00-1.047-1.01H4.98c-.037 0-.093 0-.13.02-.767-1.272-1.085-2.655-.973-4.15.075-1.122.45-2.094 1.103-2.898.542-.692 1.59-1.028 2.3-1.047 1.98-.037 2.822 2.43 2.878 3.421.243.056.654.187.934.28C10.87 1.57 9 0 7.206 0c-1.683 0-3.234 1.215-3.85 3.01-.86 2.392-.3 4.691.747 6.504a.84.84 0 00-.131.543z" fill="#FFF" fill-rule="nonzero"/>
  </symbol>
  <symbol id="ts" viewBox="0 0 14 14">
    <title>TypeScript</title>
    <path d="M0 7v7h14V0H0v7zm3.126.012l.007-.572 2.44-.007c1.34-.002 2.445.002 2.452.011.009.007.016.267.016.579v.563H6.224v5.184H4.939V7.586H3.122l.004-.574zm8.127-.522c.357.088.63.245.88.501.129.137.32.387.336.447.005.018-.607.424-.977.652-.014.009-.067-.049-.127-.137-.181-.261-.37-.374-.661-.394-.426-.028-.7.193-.699.562 0 .108.016.172.06.26.094.193.269.308.815.542 1.007.429 1.437.712 1.705 1.114.3.448.366 1.164.163 1.697-.223.58-.776.973-1.555 1.103a4.352 4.352 0 01-1.071-.011c-.565-.1-1.1-.376-1.431-.738-.13-.142-.382-.51-.366-.537.007-.01.065-.045.13-.082l.522-.298.404-.232.084.123c.119.18.378.425.534.506.448.235 1.064.201 1.368-.068a.51.51 0 00.183-.418.507.507 0 00-.105-.353c-.11-.155-.333-.286-.966-.557-.726-.31-1.038-.502-1.324-.807a1.83 1.83 0 01-.386-.696 2.761 2.761 0 01-.024-.889c.15-.694.678-1.178 1.441-1.321a3.596 3.596 0 011.067.03z" fill="#FFF" fill-rule="nonzero"/>
  </symbol>
  <symbol id="react" viewBox="0 0 16 14">
    <title>ReactJS</title>
    <path d="M12.924 4.533a10.53 10.53 0 00-.506-.16c.029-.116.055-.231.079-.345.383-1.859.132-3.357-.723-3.85-.82-.473-2.161.02-3.516 1.199-.13.113-.26.233-.391.359a9.57 9.57 0 00-.26-.24C6.186.235 4.763-.297 3.91.198c-.82.474-1.062 1.882-.717 3.644.033.17.072.344.116.52a10.4 10.4 0 00-.582.184C1.063 5.127 0 6.037 0 6.98c0 .974 1.141 1.95 2.874 2.543.137.047.28.091.425.133-.047.191-.088.379-.123.561-.329 1.732-.072 3.107.745 3.578.844.487 2.26-.013 3.64-1.219.109-.095.218-.196.328-.302.142.137.284.266.425.387 1.336 1.15 2.655 1.614 3.471 1.142.843-.488 1.117-1.965.762-3.762a8.905 8.905 0 00-.095-.42c.1-.03.198-.06.293-.092 1.802-.597 2.974-1.562 2.974-2.55 0-.946-1.097-1.862-2.795-2.446zm-.39 4.359a8.861 8.861 0 01-.264.082 15.75 15.75 0 00-.796-1.991c.313-.676.571-1.337.765-1.962.16.046.316.095.467.147 1.454.5 2.342 1.241 2.342 1.812 0 .607-.958 1.396-2.514 1.912zm-.646 1.279c.157.795.18 1.513.076 2.075-.094.504-.282.84-.515.976-.496.286-1.555-.086-2.697-1.07a9.624 9.624 0 01-.396-.36c.443-.484.886-1.048 1.318-1.673.76-.068 1.478-.178 2.129-.328.032.13.06.256.085.38zm-6.529 3.001c-.484.17-.87.176-1.102.041-.496-.286-.702-1.39-.421-2.87.032-.17.07-.344.114-.522.644.142 1.357.245 2.119.306.435.612.89 1.175 1.35 1.668-.101.096-.2.189-.3.275-.61.533-1.221.912-1.76 1.102zM3.092 8.888c-.767-.262-1.4-.602-1.834-.974-.39-.334-.587-.665-.587-.934 0-.573.854-1.303 2.277-1.8a9.69 9.69 0 01.541-.17c.197.64.455 1.31.766 1.986a16.36 16.36 0 00-.775 2.013 8.272 8.272 0 01-.388-.121zm.76-5.174c-.296-1.51-.1-2.648.394-2.934.526-.305 1.689.13 2.915 1.218.078.07.157.142.235.217-.456.49-.908 1.049-1.339 1.657-.739.069-1.447.179-2.097.326a9.846 9.846 0 01-.108-.484zm6.78 1.674a21.356 21.356 0 00-.478-.786c.502.064.982.148 1.434.25-.136.435-.305.89-.504 1.354-.142-.27-.293-.543-.452-.818zM7.867 2.695c.31.336.62.71.925 1.117a19.774 19.774 0 00-1.858 0c.306-.403.619-.777.933-1.117zM5.084 5.393c-.155.27-.303.541-.443.813-.196-.464-.363-.92-.5-1.36.449-.1.927-.183 1.425-.245-.165.258-.326.522-.482.792zm.497 4.013c-.515-.057-1-.135-1.45-.233.14-.448.31-.914.51-1.388a19.846 19.846 0 00.94 1.62v.001zm2.305 1.905a15.073 15.073 0 01-.946-1.132 23.473 23.473 0 001.869-.003c-.307.416-.616.797-.923 1.135zm3.205-3.55c.21.48.387.942.528 1.383-.456.104-.948.188-1.467.25a23.482 23.482 0 00.939-1.633zm-1.038.498c-.245.426-.498.832-.754 1.216a22.01 22.01 0 01-2.863.006 18.876 18.876 0 01-1.439-2.485 18.87 18.87 0 011.43-2.48 18.889 18.889 0 012.865 0c.262.383.515.788.76 1.209.246.426.472.848.677 1.261-.204.421-.43.847-.676 1.273zm1.386-7.5c.526.304.73 1.529.4 3.134a8.872 8.872 0 01-.07.312c-.653-.15-1.361-.262-2.103-.332a15.775 15.775 0 00-1.328-1.658c.12-.116.241-.227.361-.332C9.86.873 10.944.475 11.44.76zm-3.58 4.817a1.404 1.404 0 110 2.807 1.404 1.404 0 010-2.807z" fill="#FFF" fill-rule="nonzero"/>
  </symbol>
  <symbol id="gatsby" viewBox="0 0 14 14">
    <title>Gatsby</title>
    <path d="M7 .004A6.959 6.959 0 00.005 7 6.96 6.96 0 007 13.997a6.96 6.96 0 006.996-6.996A6.958 6.958 0 007.001.004zM1.526 7.061l5.415 5.415a5.427 5.427 0 01-5.415-5.415zm6.692 5.293l-6.57-6.57A5.484 5.484 0 017 1.524a5.528 5.528 0 014.441 2.252l-.79.669A4.467 4.467 0 006.94 2.498 4.407 4.407 0 002.742 5.48L8.46 11.2c1.4-.487 2.494-1.704 2.798-3.164H8.886V7h3.59a5.485 5.485 0 01-4.259 5.353z" fill="#FFF" fill-rule="nonzero"/>
  </symbol>
</svg>

